<?xml version="1.0" encoding="UTF-8"?><svg id="Layer_1" xmlns="http://www.w3.org/2000/svg" viewBox="0 0 25.62 135.2"><defs><style>.cls-1{fill:#231f20;}</style></defs><path class="cls-1" d="M22.08,43.81c-.7,3.89-.78,7.91-1.04,11.87-.12,1.88-.06,3.77,0,5.65,.03,.95-.26,1.27-1.2,1.01-.29-.08-.61-.01-.92-.01-.02,.13-.05,.26-.07,.39,.69,.11,1.37,.23,2,.33,0,3.4,0,6.8-.01,10.19,0,.18-.12,.39-.25,.53-.19,.21-.43,.36-.65,.54,.26,.16,.52,.31,.89,.53-.45,6.46-.9,12.98-1.36,19.52-.4,.15-.72,.27-1.23,.46,.49,.17,.78,.27,1.13,.39-.25,2.49-.6,4.97-.71,7.46-.18,4.19-.26,8.39-.26,12.58,0,1.06-.11,1.61-1.3,1.36-.1-.02-.23,.11-.46,.22,.18,.13,.3,.28,.38,.26,1.23-.28,1.51,.28,1.55,1.43,.11,3.28,.35,6.56,.55,9.96-.86,.04-1.62,.07-2.38,.1v.39c.77,.04,1.54,.09,2.31,.13,0,.09,0,.17,0,.26-1.42,0-2.85,0-4.36,0,0-6.01,0-12.07,0-18.15,.42-.13,.91-.28,1.4-.43,.02-.12,.05-.24,.07-.35-.48-.26-.97-.52-1.73-.93,.13-2.75,.14-5.75,.43-8.72,.64-6.7,1.4-13.39,2.12-20.08,.01-.14,.06-.27,.1-.42,.43-.04,.83-.08,1.23-.12,0-.1,.01-.2,.02-.3-.38-.06-.75-.11-1.36-.2,.24-8.53,.49-17.08,.73-25.6,.7-.04,1.32-.08,1.93-.12,0-.11,0-.22,0-.33-.62-.07-1.23-.14-1.79-.21-.22-5.42-.44-10.85-.66-16.32,.26-.05,.72-.14,1.18-.22,0-.1-.01-.21-.02-.31h-1.6c-.49-2.46-.98-4.93-1.47-7.41,.38-.14,.65-.24,1.16-.43-2.26-.77-1.66-2.72-2.06-4.17-.53-1.95-.77-3.97-1.19-5.95-.09-.43-.35-.87-.65-1.22-.84-.99-1.74-1.94-2.56-2.84-.59,.34-1.17,.66-1.74,.99-.1-.12-.2-.24-.3-.36,.41-.53,.83-1.05,1.22-1.56-.69-.13-1.47-.28-2.26-.43,0-.15,0-.3,0-.45,.59-.11,1.18-.22,2-.38-.62-.72-1.19-1.47-1.87-2.09-.2-.18-.81-.14-1.1,.04-.89,.54-1.65,.2-2.48-.12,.84-1.35,1.34-1.38,2.93-.31-.65-1.39-2.34-2.08-2.59-3.75,.52,.64,1.05,1.28,1.61,1.96,.26-.66,.45-1.16,.65-1.67,.15,.04,.3,.07,.44,.11-.11,.67-.23,1.35-.37,2.19,.54,.5,1.25,1.16,2.14,1.99-.21-.7-.34-1.17-.5-1.73,.28,.05,.48,.09,.67,.13l-.02-.03c.11,1.85,.8,3.5,1.87,4.96,.63,.86,1.45,1.59,2.4,2.29-.58-3.45-1.16-6.89-1.75-10.44h1.25c.43,2.57,.78,5.11,1.29,7.61,.6,2.93,1.36,5.83,1.99,8.76,.11,.49-.08,1.04-.13,1.5,.24,.52,.56,1.05,.73,1.62,.73,2.5,1.41,5.01,2.12,7.51,.1,.36,.29,.71,.64,1.04,1.02-9.33,.8-18.71,1.63-28.06,.65,0,1.17,0,1.68,0-.4,5.14-.8,10.22-1.2,15.31-.32,.06-.64,.13-.97,.2,0,.09-.01,.19-.02,.28,.33,.05,.65,.1,.98,.15-.14,6.11-.94,12.2-.57,18.32,.18,.04,.36,.07,.54,.11l1.15,3.6Zm-.89,.83c.01-.2,.03-.4,.04-.6-.84-.07-1.68-.15-2.51-.22-.02,.16-.04,.33-.05,.49,.84,.11,1.68,.22,2.53,.33Z"/><path class="cls-1" d="M8.45,9.07c.05-1.03,.73-1.47,1.62-1.72,.28,1.47-.15,1.91-1.64,1.69,0,0,.02,.03,.02,.03Z"/></svg>