<?xml version="1.0" encoding="UTF-8"?><svg id="Layer_1" xmlns="http://www.w3.org/2000/svg" viewBox="0 0 158.69 59.93"><defs><style>.cls-1{fill:#231f20;}</style></defs><path class="cls-1" d="M147.72,50.07c1-4.88-.34-8.6-3.72-10.87-3.17-2.13-7.26-2.14-10.41-.02-3.41,2.29-4.77,6.05-3.73,10.88-.92-.18-1.71-.34-2.47-.49q-.23,2.71-3.21,2.72c-5.04,0-10.07,0-15.11,0q-2.99,0-3.3-3.07c-.56-.03-1.14-.08-1.73-.08-19.24,0-38.47-.02-57.71,.04-1.44,0-2.88,.58-4.59,.95,1.03-4.85-.06-8.7-4.32-11.07-3.23-1.8-6.54-1.57-9.57,.59-3.54,2.52-4.24,6.09-3.3,10.6-1.08-.36-1.89-.67-2.73-.89-.51-.14-1.06-.2-1.6-.21-4.43-.02-8.86-.05-13.29,0-1.44,.02-2.04-.38-2.03-1.96,.06-12.93,.05-25.86,0-38.79,0-1.49,.45-2.09,1.97-2.04,2.49,.08,4.98,.03,7.46,0,.46,0,1.32-.11,1.33-.25,.24-1.92,1.7-1.19,2.69-1.22,2.42-.08,4.85-.06,7.28-.01,.92,.02,2.19-.51,2.35,1.2,.01,.14,.84,.29,1.29,.29,15.66,.01,31.31,.01,46.97,.01-.04-.17-.09-.35-.13-.52,.9-.33,1.78-.91,2.69-.95,2.79-.13,5.58-.1,8.37,0,.54,.02,1.04,.66,1.61,.9,.6,.26,1.25,.54,1.88,.55,10.68,.03,21.36,.02,32.04,.02q4.53,0,4.57,4.43c0,.36,0,.72,0,1.35,1.08,0,2.09,.06,3.09-.01,1.78-.13,2.3,.64,2.84,2.39,.75,2.4,.66,4.73,.59,7.08-.07,2.27-.56,4.53-.87,6.87,5.52,.62,11.04,1.26,16.58,1.82,1.07,.11,1.39,.52,1.55,1.53,.86,5.3,1.82,10.59,2.7,15.89,.06,.38-.18,1.14-.41,1.2-1.78,.44-3.6,.76-5.63,1.15Zm-23.2,1.01V14.8h-16.05V51.08h16.05ZM44.05,15.87v13.59h13.57V15.87h-13.57Zm29.63,13.63V15.9h-13.66v13.6h13.66Zm16.01,0V15.93h-13.57v13.58h13.57ZM11.75,15.88v13.58h13.52V15.88H11.75Zm29.7,.01h-13.48v13.6h13.48V15.89Zm50.79,13.57h13.57V15.87h-13.57v13.59Zm31.78-16.39H6.92c1.45,1.08,115.9,1.01,117.09,0Zm-17.48,18.62H6.98c1.08,1.04,98.16,1.17,99.55,0Zm.04,13.5H44.32c.95,.89,59.94,1.2,62.25,0Zm20.83-17.52h4.51c-1.5-4.69-2.09-9.28-.15-13.97h-4.36v13.97ZM7.2,45.08c-.02,.29-.03,.57-.05,.86,4.67,.03,9.35,.03,14.03-.02,.33,0,.67-.18,1-.27l-.48-.58H7.2Z"/><path class="cls-1" d="M24.96,47c0-4.6,3.52-8.22,8.03-8.24,4.66-.02,8.35,3.57,8.37,8.14,.01,4.6-3.64,8.24-8.27,8.24-4.56,0-8.11-3.57-8.12-8.14Zm13.87-.06c0-3.3-2.4-5.69-5.71-5.69-3.29,0-5.71,2.42-5.71,5.7,0,3.28,2.43,5.69,5.72,5.69,3.31,0,5.7-2.39,5.7-5.7Z"/><path class="cls-1" d="M146.63,46.9c.01,4.53-3.33,7.9-7.84,7.9-4.5,0-7.87-3.37-7.86-7.89,0-4.42,3.36-7.79,7.76-7.81,4.54-.02,7.94,3.31,7.95,7.8Zm-7.71,5.74c3.19,.01,5.83-2.52,5.87-5.64,.03-3.1-2.6-5.73-5.76-5.75-3.18-.02-5.84,2.54-5.88,5.64-.04,3.08,2.62,5.73,5.77,5.75Z"/><path class="cls-1" d="M117.28,16.18h5.84V49.54h-5.84V16.18Zm4.9,9.09c0-1.7,0-3.4,0-5.1,0-1.25-.5-2.14-1.87-2.18-1.5-.04-1.99,.91-2,2.24,0,3.34,.01,6.68,0,10.02,0,1.3,.6,2.19,1.87,2.21,1.35,.02,2.04-.87,2.01-2.27-.03-1.64,0-3.28,0-4.92Zm-3.88,15.28c0,1.7,0,3.4,0,5.1,0,1.25,.52,2.18,1.89,2.18,1.44,0,1.99-.92,1.99-2.27,0-3.28-.03-6.56,.01-9.84,.02-1.37-.54-2.34-1.91-2.38-1.4-.05-1.99,.93-1.98,2.29,.01,1.64,0,3.28,0,4.92Z"/><path class="cls-1" d="M115.6,49.61h-5.65V16.25h5.65V49.61Zm-4.69-8.92c0,1.75,.03,3.5,0,5.26-.03,1.3,.63,1.92,1.86,1.9,1.11-.01,1.81-.55,1.81-1.77,0-3.62-.01-7.25,0-10.87,0-1.24-.76-1.82-1.79-1.84-1.12-.02-1.92,.55-1.89,1.9,.04,1.81,.01,3.62,.01,5.44Zm3.66-15.41c0-1.76-.03-3.52,.01-5.28,.03-1.37-.58-2.05-1.94-2.02-1.3,.03-1.76,.78-1.74,2.02,.03,3.46,.05,6.91,0,10.37-.02,1.31,.61,2.04,1.75,2.07,1.22,.03,1.99-.67,1.94-2.08-.06-1.7-.01-3.4-.01-5.09Z"/><path class="cls-1" d="M37.39,46.9c.02,2.55-1.76,4.34-4.3,4.32-2.37-.02-4.26-1.88-4.29-4.22-.03-2.41,1.91-4.34,4.37-4.32,2.44,.02,4.2,1.78,4.22,4.22Z"/><path class="cls-1" d="M138.77,51.21c-2.38-.1-4.23-2.04-4.17-4.38,.07-2.43,2.07-4.24,4.58-4.14,2.42,.1,4.2,1.98,4.14,4.38-.07,2.46-2.03,4.25-4.55,4.15Z"/></svg>