<?xml version="1.0" encoding="UTF-8"?><svg id="Layer_1" xmlns="http://www.w3.org/2000/svg" viewBox="0 0 62.31 51.7"><defs><style>.cls-1{fill:#231f20;}</style></defs><path class="cls-1" d="M46.49,10.88c-5.75-.55-11.51-1.05-17.27-1.55-.4-.03-.82,.1-1.23,.15,0,.25-.02,.5-.03,.75,6.59,.46,13.17,.91,19.76,1.37-.28,2.19-.57,4.39-.85,6.56,2.04,.81,2.08,.89,.93,1.82l-.17-.7c-1.96,.57-3.92,1.14-5.88,1.71,.05,.17,.09,.34,.14,.51,1.69-.45,3.38-.89,5.07-1.34-.28,.72-.52,1.46-.85,2.16-1.23,2.6,.21,5.08,.38,7.6,.17,2.6,.92,5.16,1.37,7.74,.11,.61,.02,1.26,.02,2.21-2.47-2.34-5.29-2.34-8.12-3.19-.55,3.9-1.06,7.59-1.58,11.27h-1.18c-.41-.71-.65-1.71-1.27-2.07-4.8-2.8-10.08-4-15.58-4.3-2.11-.11-4.36-1.05-6.38,.86,.38-3.98,.89-7.83,1.52-11.66,.61-3.74,1.35-7.46,2.05-11.27-.6-.15-.99-.18-1.33-.33-.63-.28-1.22-.63-1.83-.96,.62-.34,1.21-.87,1.87-.97,3.04-.48,6.1-.89,9.16-1.22,1.04-.11,1.45-.46,1.59-1.53,.34-2.73,.87-5.44,1.25-8.16,.27-1.9,1.19-2.76,3.18-2.57,3.98,.39,7.99,.6,11.97,1.02,5.95,.62,5.97,.7,4.71,6.57-.02,.11-.15,.21-.22,.31-.39-.27-.76-.75-1.17-.79Zm-20.31,6.4c-.03-.13-.06-.26-.09-.39-3.14,.43-6.29,.86-9.43,1.29,.02,.17,.04,.35,.05,.52,2.37-.23,4.74-.45,7.11-.68-1.01,.36-1.64,.79-1.17,2.1,.61,1.74,.96,3.58,1.46,5.52,1.35-1.3,1.53-2.07,1.95-7.58h-2.31c.81-.26,1.62-.53,2.44-.79Zm-.19,18.25c-.03,.18-.07,.35-.1,.53-.16-.18-.45-.36-.46-.55-.14-3.04-2.14-3.74-4.71-3.91-1.34-.09-2.67-.46-4.16-.73-.54,3.15-1.04,6.1-1.58,9.3,7.8,.11,15.28,1.06,22.27,5.19,.47-3.02,.9-5.81,1.38-8.93-4.39-.6-8.48-1.58-12.65-.89Zm14.3,.03c1.86,.51,3.91,1.08,6.28,1.74-.52-2.81-1.01-5.45-1.52-8.24-3.25,1.09-5.65,2.52-4.75,6.5Zm-17.34-9.49c-.54-2.17-.98-4.21-1.61-6.2-.15-.48-1.08-1.16-1.36-1.05-.63,.27-1.4,.89-1.54,1.5-.58,2.47-.94,4.99-1.45,7.91,2.26-.82,4.03-1.47,5.96-2.17Zm16.41,5.37c-4.4,3.36-8.8,2.09-13.19,1.16-.11,.17-.23,.34-.34,.51,.43,.33,.83,.9,1.28,.94,3.84,.38,7.68,.66,11.68,.98,.14-.92,.31-1.98,.56-3.59Zm5.18-11.92c.02-.27,.04-.54,.07-.81-5.93-.51-11.86-1.03-17.79-1.54-.03,.3-.06,.61-.08,.91,5.94,.48,11.87,.96,17.81,1.44Z"/></svg>