<?xml version="1.0" encoding="UTF-8"?><svg id="Layer_1" xmlns="http://www.w3.org/2000/svg" viewBox="0 0 75.06 62.28"><defs><style>.cls-1{fill:#231f20;}</style></defs><path class="cls-1" d="M52.8,7.2c.03,1.5,.14,3,.08,4.5-.06,1.43,.33,2.7,.88,3.98,2.06,4.76,4.84,9.08,8,13.16,3.01,3.88,6.13,7.67,9.2,11.51,.14,.18,.28,.37,.49,.66-4.3-.03-6.54,2.34-7.58,6.2-4.2-1.98-7.7-4.77-10.72-8.2,1.77,3.84,4.57,6.8,8.01,9.42-4.58,.71-8.7,2.1-12.13,5.24-.23-.3-.44-.58-.65-.87-4.48-6.36-9.06-12.67-13.42-19.11-3.53-5.21-6.43-10.78-8.64-16.69-.07-.18-.14-.36-.24-.62,.56-.05,1.08-.11,1.6-.15,6.95-.47,13.87-1.2,20.68-2.77,1.89-.44,1.88-.45,1.87-2.4-.01-1.28-.02-2.56-.03-3.84h2.62Z"/><path class="cls-1" d="M3.62,52.92c.61-.85,1.13-1.59,1.66-2.33,5.17-7.23,9.2-15.08,12.77-23.19,1.14-2.58,2.23-5.19,3.31-7.79,.14-.34,.21-.75,.2-1.12-.03-2.85-.09-5.71-.14-8.56,0-.29,0-.57,0-.92h2.59c.02,.2,.04,.41,.05,.62,.04,2.13,.15,4.26,.08,6.39-.07,2.01,.43,3.83,1.24,5.65,3.03,6.81,6.92,13.11,11.2,19.18,3.17,4.51,6.43,8.96,9.64,13.44,.16,.23,.32,.46,.55,.79-1.89-.17-3.64-.33-5.39-.48-3.11-.27-6.22-.54-9.33-.8-1.23-.1-2.46-.17-3.69-.31-.2-.02-.47-.29-.55-.5-1.13-3.22-1.88-6.54-2.31-9.92-.65-5.05-1.19-10.12-1.79-15.18-.15-1.27-.36-2.52-.71-3.79-.3,2.03-.61,4.06-.88,6.1-.85,6.36-1.4,12.77-3.06,19-.29,1.07-.65,2.12-.94,3.19-.12,.44-.33,.56-.76,.55-2.83-.06-5.66-.11-8.5-.12-1.48,0-2.95,.07-4.43,.11-.23,0-.46,0-.82,0Z"/></svg>