<?xml version="1.0" encoding="UTF-8"?><svg id="Layer_1" xmlns="http://www.w3.org/2000/svg" viewBox="0 0 178.22 147.88"><defs><style>.cls-1{letter-spacing:-.02em;}.cls-2{font-family:FuturaPT-Medium, 'Futura PT';font-size:24.95px;}.cls-2,.cls-3{fill:#231f20;}.cls-4{letter-spacing:0em;}.cls-5{letter-spacing:0em;}.cls-6{letter-spacing:-.01em;}</style></defs><path class="cls-3" d="M40.49,109.21c-.06-.09-.17-.16-.19-.26-1.04-4.89-1.03-4.96,3.93-5.47,3.32-.35,6.65-.53,9.98-.85,1.66-.16,2.43,.56,2.65,2.14,.32,2.27,.76,4.53,1.05,6.81,.11,.89,.46,1.18,1.32,1.27,2.55,.28,5.1,.61,7.64,1.01,.55,.09,1.04,.53,1.56,.81-.51,.27-1,.56-1.53,.8-.28,.13-.61,.16-1.11,.28,.58,3.17,1.19,6.27,1.71,9.39,.52,3.19,.95,6.4,1.27,9.72-1.69-1.59-3.57-.81-5.32-.71-4.58,.25-8.99,1.25-12.99,3.58-.51,.3-.71,1.14-1.06,1.73h-.99c-.43-3.07-.86-6.14-1.31-9.39-2.36,.71-4.71,.71-6.77,2.66,0-.79-.08-1.33,.01-1.84,.37-2.15,1-4.29,1.14-6.45,.14-2.1,1.35-4.17,.32-6.34-.28-.58-.48-1.2-.71-1.8,1.41,.37,2.82,.74,4.23,1.11,.04-.14,.08-.28,.11-.42-1.63-.48-3.27-.95-4.9-1.43l-.14,.58c-.96-.77-.93-.84,.77-1.52-.24-1.81-.47-3.64-.71-5.47,5.49-.38,10.98-.76,16.47-1.14,0-.21-.02-.42-.02-.63-.34-.04-.69-.15-1.02-.13-4.8,.41-9.6,.83-14.4,1.29-.34,.03-.65,.43-.98,.66Zm19.94,5.34h-1.93c.35,4.59,.51,5.23,1.63,6.32,.41-1.62,.7-3.15,1.21-4.6,.39-1.1-.14-1.45-.98-1.75,1.98,.19,3.95,.38,5.93,.57,.01-.14,.03-.29,.04-.43-2.62-.36-5.24-.72-7.86-1.07-.02,.11-.05,.21-.07,.32,.68,.22,1.35,.44,2.03,.66Zm-12.42,15.3c.4,2.6,.76,4.93,1.15,7.45,5.83-3.44,12.07-4.24,18.56-4.33-.45-2.67-.87-5.12-1.32-7.75-1.25,.23-2.35,.53-3.47,.61-2.14,.15-3.81,.72-3.92,3.26,0,.16-.25,.31-.38,.46-.03-.15-.05-.3-.08-.44-3.47-.58-6.88,.24-10.54,.74Zm-5.34-6.14c-.43,2.33-.84,4.53-1.27,6.87,1.97-.55,3.68-1.02,5.23-1.45,.75-3.32-1.26-4.51-3.96-5.42Zm23.38-.68c-.43-2.43-.73-4.54-1.21-6.59-.12-.51-.76-1.03-1.28-1.25-.23-.1-1.01,.48-1.13,.87-.52,1.65-.89,3.36-1.34,5.17,1.61,.59,3.08,1.12,4.97,1.81Zm-18.18,5.66c3.34-.27,6.54-.5,9.74-.82,.38-.04,.71-.51,1.07-.79-.09-.14-.19-.28-.28-.42-3.65,.77-7.33,1.84-10.99-.97,.21,1.34,.35,2.23,.47,2.99Zm10.06-14.13c-.02-.25-.05-.51-.07-.76-4.94,.43-9.89,.86-14.83,1.29,.02,.23,.04,.45,.06,.68,4.95-.4,9.9-.8,14.84-1.2Z"/><g><path class="cls-3" d="M104.02,89.63c.04,1.65,.15,3.3,.09,4.95-.06,1.57,.36,2.97,.97,4.38,2.27,5.24,5.32,9.99,8.81,14.48,3.31,4.27,6.74,8.45,10.12,12.67,.16,.2,.31,.41,.54,.73-4.73-.03-7.2,2.58-8.34,6.82-4.62-2.18-8.47-5.25-11.8-9.03,1.95,4.22,5.03,7.49,8.81,10.37-5.04,.78-9.57,2.31-13.35,5.77-.25-.34-.49-.64-.71-.96-4.93-7-9.97-13.94-14.77-21.03-3.88-5.73-7.07-11.87-9.51-18.37-.07-.2-.15-.39-.26-.69,.62-.06,1.19-.12,1.76-.16,7.65-.52,15.27-1.32,22.75-3.05,2.08-.48,2.07-.49,2.05-2.64-.01-1.41-.02-2.82-.04-4.23h2.88Z"/><path class="cls-3" d="M49.9,139.95c.67-.94,1.25-1.75,1.83-2.57,5.69-7.95,10.13-16.6,14.05-25.52,1.25-2.84,2.45-5.71,3.65-8.58,.16-.38,.23-.82,.22-1.23-.04-3.14-.1-6.28-.15-9.42,0-.32,0-.63,0-1.01h2.86c.02,.22,.05,.45,.05,.68,.04,2.34,.16,4.69,.08,7.03-.07,2.22,.48,4.22,1.37,6.22,3.33,7.5,7.62,14.43,12.32,21.11,3.49,4.96,7.07,9.86,10.61,14.79,.18,.25,.35,.51,.6,.87-2.08-.19-4.01-.36-5.93-.53-3.42-.3-6.84-.59-10.27-.88-1.35-.11-2.71-.19-4.06-.34-.22-.03-.52-.32-.6-.55-1.24-3.55-2.07-7.2-2.55-10.92-.72-5.56-1.3-11.14-1.96-16.71-.17-1.39-.4-2.78-.78-4.17-.32,2.24-.67,4.47-.97,6.71-.94,7-1.54,14.06-3.37,20.91-.31,1.18-.72,2.33-1.03,3.51-.13,.48-.36,.61-.84,.6-3.12-.07-6.23-.12-9.35-.14-1.62,0-3.25,.08-4.87,.12-.25,0-.51,0-.91,0Z"/></g><path class="cls-3" d="M138.48,108.55c-4.8-.46-9.6-.88-14.4-1.29-.34-.03-.68,.08-1.02,.13,0,.21-.02,.42-.02,.63,5.49,.38,10.98,.76,16.47,1.14-.24,1.83-.48,3.66-.71,5.47,1.7,.68,1.73,.74,.77,1.52l-.14-.58c-1.63,.48-3.27,.95-4.9,1.43,.04,.14,.08,.28,.11,.42,1.41-.37,2.82-.74,4.23-1.11-.23,.6-.43,1.22-.71,1.8-1.03,2.17,.18,4.23,.32,6.34,.14,2.17,.77,4.3,1.14,6.45,.09,.51,.01,1.05,.01,1.84-2.06-1.95-4.41-1.95-6.77-2.66-.46,3.25-.88,6.32-1.31,9.39h-.99c-.35-.59-.55-1.43-1.06-1.73-4-2.33-8.41-3.34-12.99-3.58-1.76-.09-3.64-.88-5.32,.71,.32-3.32,.74-6.53,1.27-9.72,.51-3.12,1.13-6.22,1.71-9.39-.5-.12-.83-.15-1.11-.28-.52-.24-1.02-.53-1.53-.8,.52-.28,1.01-.72,1.56-.81,2.54-.4,5.09-.74,7.64-1.01,.86-.09,1.21-.38,1.32-1.27,.29-2.28,.73-4.53,1.05-6.81,.22-1.58,.99-2.3,2.65-2.14,3.32,.32,6.66,.5,9.98,.85,4.96,.52,4.97,.58,3.93,5.47-.02,.1-.12,.17-.19,.26-.32-.23-.63-.62-.98-.66Zm-16.93,5.33c-.02-.11-.05-.21-.07-.32-2.62,.36-5.24,.72-7.86,1.07,.01,.14,.03,.29,.04,.43,1.98-.19,3.95-.38,5.93-.57-.84,.3-1.36,.66-.98,1.75,.51,1.45,.8,2.99,1.21,4.6,1.12-1.08,1.27-1.72,1.63-6.32h-1.93c.68-.22,1.35-.44,2.03-.66Zm-.16,15.22c-.03,.15-.05,.3-.08,.44-.13-.15-.37-.3-.38-.46-.12-2.54-1.79-3.12-3.92-3.26-1.12-.08-2.23-.38-3.47-.61-.45,2.63-.86,5.09-1.32,7.75,6.5,.09,12.73,.89,18.56,4.33,.39-2.52,.75-4.85,1.15-7.45-3.66-.5-7.07-1.31-10.54-.74Zm11.92,.03c1.55,.43,3.26,.9,5.23,1.45-.43-2.34-.84-4.54-1.27-6.87-2.71,.91-4.71,2.1-3.96,5.42Zm-14.45-7.91c-.45-1.81-.82-3.51-1.34-5.17-.12-.4-.9-.97-1.13-.87-.53,.22-1.17,.74-1.28,1.25-.48,2.06-.78,4.16-1.21,6.59,1.88-.69,3.36-1.22,4.97-1.81Zm13.68,4.47c-3.67,2.8-7.34,1.74-10.99,.97-.09,.14-.19,.28-.28,.42,.36,.27,.69,.75,1.07,.79,3.2,.31,6.4,.55,9.74,.82,.12-.77,.26-1.65,.47-2.99Zm4.32-9.93c.02-.23,.04-.45,.06-.68-4.94-.43-9.89-.86-14.83-1.29-.02,.25-.05,.51-.07,.76,4.95,.4,9.9,.8,14.84,1.2Z"/><text class="cls-2" transform="translate(65.96 26.35)"><tspan x="0" y="0">THIS</tspan><tspan x="-22.86" y="25.29">MU</tspan><tspan class="cls-1" x="14.71" y="25.29">S</tspan><tspan class="cls-4" x="27.08" y="25.29">T BE</tspan><tspan x="-32.43" y="50.58">THE P</tspan><tspan class="cls-5" x="24.72" y="50.58">L</tspan><tspan class="cls-6" x="34.8" y="50.58">A</tspan><tspan x="50.79" y="50.58">CE</tspan></text></svg>