<?xml version="1.0" encoding="UTF-8"?><svg id="Layer_1" xmlns="http://www.w3.org/2000/svg" viewBox="0 0 100.58 83.45"><defs><style>.cls-1{fill:#231f20;}</style></defs><path class="cls-1" d="M71.24,40.11c-.78,.72-1.42,1.31-2.19,2.01,1.33,.27,2.54,.51,3.85,.77-3.15,1.22-6.45,.66-9.75,1.33,.56,.41,1,.73,1.43,1.04,.04,.33-1,.05-.05,.93-1.63-.25-2.91-.44-4.33-.66,5.88,5.33,12.79,7.19,20.66,6.67-3.35,3.89-7.53,5.69-12.55,6.31,1.13,.63,2.09,1.16,3.25,1.8-2.79,.38-5.29,.16-7.78-.59,5.56,6.57,12.89,8.7,21.18,8.53-5.75,3.15-11.87,4.02-18.52,3,.97,.87,1.77,1.58,2.56,2.3-.02,.05-.04,.09-.06,.14-2.35-.5-4.69-1-7.04-1.5-.03,.04-.06,.08-.1,.11,1.3,1.08,2.59,2.17,3.9,3.27-2-.4-3.94-.86-5.91-1.17-1.95-.31-3.93-.46-6.04-.7,0,1.19,0,2.26,0,3.34,0,1.39-.41,1.81-1.78,1.81-1.2,0-2.4,.01-3.6,0-1.06-.01-1.53-.48-1.55-1.53-.02-1.14,0-2.28,0-3.54-4.05,.27-7.98,.73-11.88,1.76,1.27-1.07,2.55-2.14,3.82-3.21-.02-.05-.03-.09-.05-.14-2.35,.5-4.71,1-7.06,1.5-.02-.04-.04-.09-.07-.13,.8-.72,1.6-1.43,2.57-2.31-6.63,1.02-12.76,.15-18.53-3,8.28,.17,15.61-1.95,21.17-8.51-2.48,.73-4.98,.95-7.77,.58,1.17-.65,2.12-1.18,3.26-1.81-5-.62-9.19-2.41-12.53-6.3,7.86,.5,14.78-1.34,20.63-6.68-1.37,.22-2.64,.41-3.91,.61,.03-.09,.06-.18,.09-.26-.18-.21-.35-.43-.53-.64,.39-.28,.84-.61,1.43-1.03-3.32-.66-6.65-.11-9.81-1.33,1.28-.25,2.5-.49,3.87-.75-.75-.71-1.38-1.32-2.14-2.04,5.57-.44,10.02-2.63,13.61-6.76-1.49,.19-2.85,.37-4.22,.55-.04-.07-.07-.14-.11-.21,.51-.59,1.03-1.19,1.54-1.78-2.55,.72-5.08,1.11-7.78-.05,4.29-2.18,7.94-4.99,11.06-8.77-.43,.05-.69,.08-.94,.11-.28,.03-.55,.05-1.02,.1,.5-.72,.92-1.31,1.47-2.1-2.01,1.19-3.95,1.6-6.05,.85,1.33-1.11,2.68-2.14,3.92-3.29,3.9-3.65,6.72-8.01,8.46-13.07,.05-.13,.06-.29,.15-.39,.24-.27,.54-.72,.78-.7,.32,.03,.72,.39,.86,.7,.75,1.64,1.34,3.37,2.16,4.97,2.36,4.56,5.69,8.31,9.87,11.3,.17,.12,.33,.27,.57,.45-2.15,.75-4.07,.38-6.12-.86,.55,.8,.96,1.39,1.47,2.11-.69-.07-1.22-.12-1.93-.19,3.06,3.76,6.71,6.55,11.01,8.74-1.29,.65-2.57,.84-3.84,.73-1.29-.12-2.55-.46-4-.74,.58,.66,1.1,1.24,1.61,1.82-.02,.08-.04,.17-.06,.25-1.37-.18-2.75-.35-4.08-.52,1.35,2.93,7.58,6.12,13.48,6.75Z"/></svg>